<svg width="1068" height="634" viewBox="0 0 1068 634" fill="none" xmlns="http://www.w3.org/2000/svg">
<mask id="mask0" mask-type="alpha" maskUnits="userSpaceOnUse" x="0" y="0" width="1068" height="634">
<rect x="0.521271" width="1066.81" height="633.498" fill="#C4C4C4"/>
</mask>
<g mask="url(#mask0)">
<path d="M222.141 729.974C205.435 741.741 201.431 764.824 213.197 781.53L260.058 848.063C271.825 864.769 294.908 868.774 311.614 857.007L1214.55 221.041C1231.26 209.274 1235.26 186.192 1223.49 169.485L1176.63 102.953C1164.87 86.2461 1141.78 82.2417 1125.08 94.0087L222.141 729.974Z" fill="#B9FFF3"/>
<path d="M-39.7979 661.516C-50.6346 669.148 -53.232 684.121 -45.5994 694.958L16.2332 782.747C23.8658 793.583 38.8381 796.181 49.6748 788.548L363.727 567.352C374.564 559.719 377.161 544.747 369.529 533.91L307.696 446.121C300.063 435.284 285.091 432.687 274.254 440.319L-39.7979 661.516Z" fill="#F5FFFD"/>
<g style="mix-blend-mode:multiply">
<path d="M504.139 840.526C482.348 856.573 477.692 887.247 493.74 909.038L543.086 976.045C559.133 997.836 589.807 1002.49 611.597 986.444L1276.44 496.835C1298.23 480.787 1302.89 450.114 1286.84 428.323L1237.5 361.316C1221.45 339.525 1190.77 334.869 1168.98 350.916L504.139 840.526Z" fill="#2CC4B0"/>
</g>
</g>
</svg>
